<?xml version="1.0" encoding="utf-8"?>
<!-- Generator: Adobe Illustrator 23.0.2, SVG Export Plug-In . SVG Version: 6.00 Build 0)  -->
<svg version="1.1" id="Calque_1" xmlns="http://www.w3.org/2000/svg" xmlns:xlink="http://www.w3.org/1999/xlink" x="0px" y="0px"
	 viewBox="0 0 1920 1080" style="enable-background:new 0 0 1920 1080;" xml:space="preserve">
<style type="text/css">
	.st0{fill:#2596BE;}
	.st1{fill:#D8D8D8;}
</style>
<ellipse cx="904.5" cy="509" rx="308.5" ry="64"/>
<path class="st0" d="M811.6,488.2L796,321.5c-3.4,28.1-9.7,54.2-19,78.5c-9.2,24.3-19.7,43.1-31.4,56.3
	c-11.7,13.3-23.7,22.6-35.9,27.9c-12.2,5.4-24.4,8-36.3,8c-7.2,0-12.8-1.2-16.7-3.5c-3.9-2.3-5.8-5.1-5.8-8.4c0-2.8,1.4-5.2,4.2-7.3
	c2.8-2.1,6.4-3.1,10.8-3.1c3.2,0,7.7,0.5,13.6,1.6c5.4,1.1,9.9,1.6,13.4,1.6c6.2,0,12.6-1.8,19.3-5.4c10.1-5.4,20.2-15,30.1-28.8
	c9.9-13.9,18.8-33.2,26.7-58c7.8-24.8,12.7-49,14.7-72.6c-29.9,0-54.2,5.8-72.9,17.5c-14.9,9.3-22.3,19.6-22.3,31.1
	c0,5.1,3.5,11.1,10.5,18.3c3.8,3.8,5.7,6.9,5.7,9.3c0,2.7-1.1,4.9-3.2,6.7c-2.2,1.8-4.7,2.6-7.7,2.6c-5.1,0-9.6-2.3-13.5-6.8
	c-5.4-6.1-8-13.3-8-21.7c0-11.8,5-23,15.1-33.8c10.1-10.8,24-19,41.9-24.6c17.8-5.6,38.7-8.5,62.7-8.6c12.9,0,23.2-0.9,31-2.8
	c-0.4,9.3-0.6,14.3-0.5,15c-0.1,0.9,0.1,3,0.5,6.3l11.5,117.8c31.8-43.5,63-79.3,93.3-107.5C949.2,307.5,968,294,984,287
	c-9.1,19.6-18.9,45.4-29.4,77.5l-24.2,74.3c-1.3,4.1-3.1,10.2-5.4,18.1l-4.8,16.6c10,1.9,19.2,2.8,27.5,2.8c6.7,0,13.9-0.6,21.5-1.9
	l-2.6,9c-6.7,0.9-11.9,1.4-15.6,1.4c-5.4,0-13.2-0.5-23.3-1.4c-8.3-0.8-15.7-1.2-22.1-1.2c-6.8,0-14.6,1-23.3,3.1
	c7.3-14.9,14.8-34.8,22.8-59.9l15.2-47.3c6.5-20.4,12.1-34.4,16.8-42.1c-10.6,9.4-26.9,26.6-48.9,51.7
	c-17.7,20.2-37.5,45.8-59.4,76.8L811.6,488.2z"/>
<path class="st1" d="M992.7,396.8c5.1-3.1,9-4.7,11.6-4.7c2.1,0,3.8,0.6,5.2,1.8c1.3,1.2,2,2.7,2,4.5c0,3.8-3.3,6.5-9.8,8
	l-12.9,22.3c-3.2,6.2-5.7,12.4-7.3,18.6c-1.6,6.2-2.4,12.5-2.4,19c0,8.2,2.2,21.2,6.7,39.2c17.2-10,33.2-23.5,48-40.3
	c-0.1-4.2-0.2-7.3-0.2-9.3c0-21.6,3.6-38.7,10.9-51.2c4.8-8.3,10.1-12.4,15.9-12.4c3.5,0,6.3,1.3,8.6,3.9c2.3,2.6,3.4,6.5,3.4,11.6
	c0,4.1-0.9,8.9-2.7,14.3c-3,8.9-6.6,17-10.7,24.3c0,24.8,2.2,44.5,6.5,59c13.4-8.1,26.4-18.2,39-30.4c9.3-8.9,16.3-18.3,21.1-28
	c4.8-9.7,7.2-17.6,7.2-23.8c0-3-1.3-7-3.8-11.8c-2.9-5.6-4.3-9.7-4.3-12.2c0-2.6,1.1-4.7,3.2-6.6c2.1-1.8,4.7-2.7,7.8-2.7
	c3.7,0,6.7,1.5,8.9,4.6c2.2,3.1,3.3,8.6,3.3,16.6c0,20.3-10,41.5-30,63.7c-20,22.2-44.5,39.4-73.3,51.5c-3.6-10.7-6.9-26.7-9.9-47.8
	c-15.2,13.4-24.6,21.4-28.3,24c-7.4,5.4-14.5,10-21.3,13.8c-6.9,3.8-14.2,7.1-22,10c-0.8-5.6-2.6-14.7-5.4-27.1
	c-3.9-17.6-5.9-30.2-5.9-37.8c0-10.2,2.8-20.3,8.5-30.2c5.6-9.9,14.1-18.6,25.4-26c-20.2,0.5-34.7,2.6-43.3,6.2
	c-5.8,2.5-8.7,5.4-8.7,8.9c0,1.3,0.7,3.3,2,6.2c1.2,2.7,1.8,4.6,1.8,5.9c0,1.8-0.7,3.3-2.2,4.6c-1.5,1.3-3.3,1.9-5.6,1.9
	c-2.9,0-5.4-1.1-7.5-3.4c-2-2.3-3-5.5-3-9.6c0-7.9,4-14.3,12.1-19.2C943.1,399.6,963.5,396.3,992.7,396.8z"/>
</svg>
